<?xml version="1.0" encoding="UTF-8"?>
<svg xmlns="http://www.w3.org/2000/svg" xmlns:xlink="http://www.w3.org/1999/xlink" width="20px" height="20px" viewBox="0 0 20 20" version="1.1">
<g id="surface1">
<path style=" stroke:none;fill-rule:nonzero;fill:rgb(82.352941%,15.686275%,33.72549%);fill-opacity:1;" d="M 19.90625 14.609375 C 19.886719 14.5625 19.863281 14.519531 19.839844 14.480469 C 19.488281 13.855469 18.828125 13.085938 17.847656 12.175781 L 17.808594 12.136719 L 17.796875 12.136719 C 17.355469 11.710938 17.074219 11.425781 16.953125 11.28125 C 16.734375 11 16.6875 10.71875 16.808594 10.4375 C 16.890625 10.21875 17.203125 9.765625 17.746094 9.074219 C 18.03125 8.703125 18.253906 8.40625 18.421875 8.1875 C 19.625 6.589844 20.144531 5.566406 19.984375 5.121094 L 19.921875 5.015625 C 19.882812 4.957031 19.777344 4.894531 19.597656 4.84375 C 19.378906 4.789062 19.152344 4.78125 18.933594 4.816406 L 15.933594 4.839844 C 15.863281 4.824219 15.792969 4.828125 15.722656 4.84375 C 15.679688 4.855469 15.632812 4.867188 15.589844 4.878906 L 15.535156 4.90625 L 15.496094 4.9375 C 15.449219 4.964844 15.410156 5 15.378906 5.042969 C 15.335938 5.097656 15.300781 5.15625 15.277344 5.222656 C 14.964844 6.039062 14.59375 6.816406 14.160156 7.574219 C 13.933594 7.953125 13.699219 8.324219 13.453125 8.691406 C 13.238281 9.003906 13.058594 9.238281 12.910156 9.390625 C 12.765625 9.539062 12.628906 9.65625 12.515625 9.75 C 12.394531 9.839844 12.308594 9.878906 12.246094 9.863281 C 12.183594 9.847656 12.121094 9.832031 12.066406 9.824219 C 11.96875 9.761719 11.886719 9.671875 11.832031 9.566406 C 11.765625 9.441406 11.726562 9.304688 11.714844 9.160156 C 11.691406 9.023438 11.679688 8.882812 11.675781 8.738281 C 11.671875 8.574219 11.671875 8.40625 11.683594 8.238281 C 11.6875 8.019531 11.691406 7.875 11.691406 7.800781 C 11.691406 7.535156 11.699219 7.25 11.707031 6.9375 C 11.71875 6.628906 11.722656 6.386719 11.734375 6.207031 C 11.738281 6.027344 11.746094 5.832031 11.746094 5.632812 C 11.746094 5.433594 11.730469 5.269531 11.707031 5.15625 C 11.683594 5.042969 11.644531 4.933594 11.597656 4.828125 C 11.554688 4.726562 11.480469 4.636719 11.386719 4.574219 C 11.277344 4.511719 11.15625 4.464844 11.035156 4.433594 C 10.574219 4.339844 10.101562 4.296875 9.628906 4.296875 C 8.335938 4.285156 7.503906 4.371094 7.136719 4.546875 C 6.988281 4.628906 6.855469 4.734375 6.738281 4.859375 C 6.613281 5.015625 6.597656 5.101562 6.6875 5.113281 C 7.105469 5.171875 7.402344 5.324219 7.574219 5.5625 L 7.640625 5.6875 C 7.6875 5.777344 7.734375 5.933594 7.78125 6.160156 C 7.832031 6.390625 7.863281 6.644531 7.875 6.921875 C 7.910156 7.433594 7.910156 7.863281 7.875 8.226562 C 7.855469 8.511719 7.816406 8.792969 7.777344 9.074219 C 7.75 9.269531 7.699219 9.4375 7.640625 9.5625 C 7.574219 9.6875 7.535156 9.761719 7.515625 9.792969 C 7.5 9.8125 7.480469 9.828125 7.457031 9.84375 C 7.367188 9.878906 7.273438 9.894531 7.175781 9.894531 C 7.085938 9.894531 6.964844 9.84375 6.824219 9.75 C 6.664062 9.632812 6.523438 9.5 6.394531 9.347656 C 6.207031 9.125 6.035156 8.886719 5.886719 8.636719 C 5.671875 8.285156 5.480469 7.921875 5.300781 7.550781 L 5.136719 7.25 C 4.988281 6.96875 4.847656 6.683594 4.710938 6.394531 C 4.535156 6.042969 4.375 5.683594 4.230469 5.316406 C 4.1875 5.183594 4.097656 5.066406 3.980469 4.988281 L 3.925781 4.953125 C 3.875 4.917969 3.820312 4.886719 3.761719 4.863281 C 3.683594 4.832031 3.601562 4.8125 3.519531 4.796875 L 0.667969 4.816406 C 0.375 4.816406 0.175781 4.886719 0.0742188 5.015625 L 0.03125 5.078125 C 0.0078125 5.132812 -0.00390625 5.191406 0 5.25 C 0.00390625 5.34375 0.0273438 5.4375 0.0625 5.527344 C 0.472656 6.496094 0.925781 7.4375 1.421875 8.363281 C 1.910156 9.269531 2.339844 10.003906 2.699219 10.5625 C 3.269531 11.433594 3.886719 12.273438 4.546875 13.082031 L 4.832031 13.394531 L 5.09375 13.644531 C 5.261719 13.8125 5.503906 14.011719 5.828125 14.246094 C 6.175781 14.488281 6.53125 14.71875 6.902344 14.933594 C 7.296875 15.15625 7.75 15.34375 8.269531 15.484375 C 8.789062 15.625 9.300781 15.683594 9.796875 15.65625 L 10.996094 15.65625 C 11.238281 15.636719 11.421875 15.558594 11.546875 15.425781 L 11.589844 15.375 C 11.621094 15.3125 11.648438 15.25 11.667969 15.183594 C 11.6875 15.089844 11.703125 14.992188 11.703125 14.894531 C 11.691406 14.625 11.714844 14.351562 11.769531 14.089844 C 11.824219 13.847656 11.878906 13.667969 11.949219 13.546875 C 12.015625 13.425781 12.089844 13.324219 12.171875 13.238281 C 12.222656 13.179688 12.28125 13.128906 12.347656 13.089844 C 12.386719 13.074219 12.410156 13.058594 12.433594 13.050781 C 12.597656 12.996094 12.792969 13.050781 13.019531 13.214844 C 13.246094 13.375 13.457031 13.578125 13.65625 13.816406 C 13.886719 14.09375 14.125 14.363281 14.371094 14.625 C 14.644531 14.921875 14.890625 15.144531 15.097656 15.292969 L 15.308594 15.417969 C 15.449219 15.5 15.625 15.578125 15.847656 15.644531 C 16.035156 15.714844 16.238281 15.734375 16.433594 15.699219 L 19.097656 15.65625 C 19.367188 15.65625 19.566406 15.613281 19.714844 15.527344 C 19.859375 15.4375 19.949219 15.34375 19.972656 15.238281 C 20.003906 15.125 20.007812 15.003906 19.980469 14.886719 C 19.96875 14.789062 19.941406 14.699219 19.90625 14.609375 Z M 19.90625 14.609375 "/>
</g>
</svg>
